<?xml version="1.0" standalone="no"?>
<!DOCTYPE svg PUBLIC "-//W3C//DTD SVG 20010904//EN"
 "http://www.w3.org/TR/2001/REC-SVG-20010904/DTD/svg10.dtd">
<svg version="1.0" xmlns="http://www.w3.org/2000/svg"
 width="180.000000pt" height="180.000000pt" viewBox="0 0 180.000000 180.000000"
 preserveAspectRatio="xMidYMid meet">

<g transform="translate(0.000000,180.000000) scale(0.100000,-0.100000)"
fill="#000000" stroke="none">
<path d="M176 1699 c2 -4 17 -5 31 -3 42 8 42 15 1 12 -20 -1 -35 -5 -32 -9z"/>
<path d="M370 1671 c0 -5 7 -12 16 -15 14 -5 15 -4 4 9 -14 17 -20 19 -20 6z"/>
<path d="M422 1620 c9 -26 13 -30 16 -16 2 10 -3 26 -12 35 -15 15 -16 13 -4
-19z"/>
<path d="M430 1553 c0 -21 3 -24 9 -14 5 8 7 20 4 28 -8 21 -13 15 -13 -14z"/>
<path d="M391 1383 c-1 -6 -4 -20 -7 -30 -5 -17 -5 -17 6 0 6 10 9 23 6 30 -3
9 -5 9 -5 0z"/>
<path d="M354 1343 c-3 -16 -7 -32 -8 -38 -1 -5 3 -21 10 -34 14 -27 12 -37
-6 -26 -6 4 -9 14 -6 22 4 8 1 11 -5 8 -6 -4 -8 -13 -5 -21 3 -8 -1 -14 -10
-14 -8 0 -12 4 -9 10 3 6 -1 7 -9 4 -9 -3 -16 -10 -16 -15 0 -5 -7 -9 -15 -9
-28 0 -100 -77 -134 -145 -71 -138 -36 -284 87 -365 53 -35 93 -47 179 -54 60
-5 61 -5 95 32 80 89 133 216 144 345 6 72 4 90 -14 130 -18 40 -26 47 -64 57
-24 6 -57 15 -75 20 -17 4 -34 5 -37 2 -3 -3 -6 4 -6 15 0 12 -9 31 -21 44
-20 23 -20 23 -14 2 4 -15 0 -25 -12 -32 -14 -8 -15 -11 -3 -12 8 -1 21 -1 28
0 6 1 12 -2 12 -6 0 -5 -8 -9 -18 -10 -9 -1 -24 -3 -32 -5 -12 -2 -14 6 -12
40 1 25 -2 42 -8 42 -7 0 -9 8 -5 20 3 11 4 20 1 20 -3 0 -8 -12 -12 -27z m62
-149 c14 -10 32 -30 40 -45 21 -41 17 -49 -6 -12 -10 18 -33 39 -50 48 -16 8
-30 18 -30 20 0 10 22 4 46 -11z m-42 -50 c30 -12 18 -34 -19 -34 -24 0 -35 5
-35 14 0 21 27 31 54 20z"/>
<path d="M944 1063 c-2 -137 -35 -268 -104 -409 -46 -94 -111 -176 -128 -159
-4 3 8 17 26 31 43 34 43 68 0 94 -37 22 -103 27 -115 8 -4 -7 -8 -53 -8 -103
l0 -89 -35 -6 c-41 -7 -80 -27 -80 -41 0 -5 -12 -15 -27 -21 -44 -19 -63 -39
-63 -68 0 -14 -5 -31 -11 -37 -8 -8 -8 -13 1 -18 7 -4 14 1 17 14 4 14 13 21
30 21 14 0 37 13 55 30 17 17 40 30 54 30 16 0 40 17 72 50 26 27 54 50 61 50
7 0 31 -13 55 -29 58 -40 101 -47 149 -22 l37 19 16 -31 c9 -18 22 -39 29 -47
7 -8 18 -34 24 -57 8 -27 22 -51 41 -64 16 -12 31 -32 34 -45 6 -24 52 -54 82
-54 10 0 26 -7 36 -17 10 -9 21 -13 25 -9 7 6 -9 21 -30 29 -4 1 -9 9 -11 17
-7 40 -20 62 -47 75 -18 10 -29 23 -29 36 0 11 -5 30 -11 41 -11 20 -9 21 22
14 19 -4 70 -10 114 -13 69 -5 87 -3 133 17 60 26 112 81 139 146 10 24 21 44
25 44 8 0 2 -17 -36 -103 -14 -32 -26 -65 -26 -75 0 -9 -11 -40 -24 -68 -24
-52 -34 -148 -16 -159 6 -4 7 5 4 23 -5 24 0 32 30 56 20 15 39 38 42 51 3 14
8 25 11 25 3 0 46 -34 95 -75 49 -41 93 -75 97 -75 4 0 -9 81 -28 180 -20 99
-38 176 -41 172 -4 -4 -14 -32 -23 -63 -18 -60 -46 -102 -78 -119 -15 -9 -19
-7 -19 5 0 8 11 20 24 25 13 5 27 17 30 27 23 79 17 223 -10 223 -17 0 -17 3
0 87 42 202 29 310 -53 428 -42 60 -52 70 -76 68 -15 -1 -29 -3 -30 -5 -2 -2
3 -28 12 -58 36 -136 -31 -446 -123 -568 -25 -32 -27 -33 -45 -16 -36 33 -112
14 -129 -32 -12 -31 -4 -51 28 -68 l25 -13 -47 -28 c-44 -26 -48 -26 -71 -11
-20 13 -25 25 -25 57 0 22 5 50 12 62 6 12 12 42 13 67 1 28 16 77 39 127 56
124 87 257 89 388 l2 110 -60 12 c-33 7 -85 15 -115 19 l-55 6 -1 -109z"/>
<path d="M373 569 c-24 -28 -43 -59 -43 -69 0 -11 -4 -22 -10 -25 -11 -7 -13
-64 -4 -90 6 -14 8 -14 25 1 11 9 19 29 19 44 0 15 9 37 20 50 11 13 20 35 20
50 0 17 8 33 21 41 17 12 18 17 7 31 -12 16 -17 13 -55 -33z"/>
<path d="M315 351 c-3 -5 -1 -12 5 -16 5 -3 10 1 10 9 0 18 -6 21 -15 7z"/>
</g>
</svg>
