<svg xmlns="http://www.w3.org/2000/svg" xmlns:xlink="http://www.w3.org/1999/xlink" width="100" zoomAndPan="magnify" viewBox="0 0 75 30.000001" height="40" preserveAspectRatio="xMidYMid meet" version="1.0"><defs><g/><clipPath id="4c0c5bf211"><path d="M 10 7.242188 L 14 7.242188 L 14 12 L 10 12 Z M 10 7.242188 " clip-rule="nonzero"/></clipPath><clipPath id="103b2b133d"><path d="M 3.78125 11 L 16.960938 11 L 16.960938 22.894531 L 3.78125 22.894531 Z M 3.78125 11 " clip-rule="nonzero"/></clipPath><clipPath id="25de121747"><path d="M 1.210938 27 L 73.789062 27 L 73.789062 29.03125 L 1.210938 29.03125 Z M 1.210938 27 " clip-rule="nonzero"/></clipPath><clipPath id="0c69c8ccdf"><path d="M 1.210938 0 L 73.789062 0 L 73.789062 9 L 1.210938 9 Z M 1.210938 0 " clip-rule="nonzero"/></clipPath><clipPath id="a7408c84f6"><path d="M 72 0 L 73.789062 0 L 73.789062 29.03125 L 72 29.03125 Z M 72 0 " clip-rule="nonzero"/></clipPath><clipPath id="e323fa184f"><path d="M 1.210938 0 L 3 0 L 3 29.03125 L 1.210938 29.03125 Z M 1.210938 0 " clip-rule="nonzero"/></clipPath></defs><g clip-path="url(#4c0c5bf211)"><path fill="#ffffff" d="M 10.65625 11.136719 C 10.621094 11.136719 10.601562 11.136719 10.597656 11.136719 C 10.351562 11.128906 10.152344 10.921875 10.144531 10.667969 C 10.140625 10.605469 10.097656 9.113281 11.015625 8.1875 C 11.925781 7.261719 13.378906 7.304688 13.441406 7.308594 C 13.6875 7.316406 13.886719 7.519531 13.894531 7.777344 C 13.894531 7.839844 13.9375 9.328125 13.023438 10.257812 C 12.207031 11.085938 10.945312 11.136719 10.65625 11.136719 Z M 12.917969 8.320312 C 12.539062 8.378906 12.023438 8.523438 11.667969 8.882812 C 11.324219 9.234375 11.179688 9.746094 11.121094 10.125 C 11.5 10.066406 12.011719 9.921875 12.367188 9.558594 C 12.714844 9.207031 12.859375 8.699219 12.917969 8.320312 Z M 11.34375 8.535156 L 11.347656 8.535156 Z M 11.34375 8.535156 " fill-opacity="1" fill-rule="nonzero"/></g><g clip-path="url(#103b2b133d)"><path fill="#ffffff" d="M 12.9375 22.894531 C 12.128906 22.894531 11.542969 22.640625 11.117188 22.457031 C 10.871094 22.351562 10.65625 22.257812 10.496094 22.257812 C 10.335938 22.257812 10.125 22.351562 9.875 22.457031 C 9.449219 22.640625 8.867188 22.894531 8.058594 22.894531 C 6.433594 22.894531 3.929688 19.957031 3.929688 16.050781 C 3.929688 15.398438 4.039062 14.761719 4.253906 14.160156 C 4.902344 12.367188 6.464844 11.117188 8.058594 11.117188 C 8.777344 11.117188 9.15625 11.3125 9.488281 11.484375 C 9.773438 11.632812 10 11.753906 10.496094 11.753906 C 10.996094 11.753906 11.222656 11.632812 11.507812 11.484375 C 11.839844 11.3125 12.214844 11.117188 12.9375 11.117188 C 14.097656 11.117188 15.269531 11.769531 16.078125 12.863281 C 16.164062 12.980469 16.195312 13.132812 16.164062 13.273438 C 16.128906 13.417969 16.035156 13.535156 15.910156 13.601562 C 15.117188 13.992188 14.625 14.8125 14.625 15.734375 C 14.625 16.84375 15.351562 17.796875 16.382812 18.042969 C 16.511719 18.074219 16.621094 18.160156 16.6875 18.277344 C 16.75 18.394531 16.765625 18.535156 16.726562 18.667969 C 15.949219 21.195312 14.140625 22.894531 12.9375 22.894531 Z M 10.496094 21.285156 C 10.84375 21.285156 11.152344 21.417969 11.476562 21.558594 C 11.871094 21.726562 12.316406 21.921875 12.9375 21.921875 C 13.523438 21.921875 14.910156 20.859375 15.675781 18.828125 C 14.484375 18.324219 13.6875 17.117188 13.6875 15.734375 C 13.6875 14.648438 14.171875 13.664062 14.984375 13.042969 C 14.394531 12.441406 13.65625 12.089844 12.9375 12.089844 C 12.4375 12.089844 12.214844 12.207031 11.929688 12.355469 C 11.59375 12.53125 11.21875 12.726562 10.496094 12.726562 C 9.777344 12.726562 9.398438 12.53125 9.066406 12.355469 C 8.78125 12.207031 8.558594 12.089844 8.058594 12.089844 C 6.847656 12.089844 5.648438 13.082031 5.132812 14.503906 C 4.957031 14.992188 4.867188 15.515625 4.867188 16.050781 C 4.867188 19.582031 7.136719 21.921875 8.058594 21.921875 C 8.679688 21.921875 9.125 21.726562 9.515625 21.558594 C 9.84375 21.417969 10.152344 21.285156 10.496094 21.285156 Z M 10.496094 21.285156 " fill-opacity="1" fill-rule="nonzero"/></g><g fill="#ffffff" fill-opacity="1"><g transform="translate(21.629581, 20.566361)"><g><path d="M 5.34375 0 L 4.8125 -1.71875 L 2.171875 -1.71875 L 1.65625 0 L 0 0 L 2.5625 -7.265625 L 4.4375 -7.265625 L 7 0 Z M 4.453125 -3.015625 C 3.960938 -4.578125 3.6875 -5.457031 3.625 -5.65625 C 3.570312 -5.863281 3.53125 -6.023438 3.5 -6.140625 C 3.394531 -5.722656 3.082031 -4.679688 2.5625 -3.015625 Z M 4.453125 -3.015625 "/></g></g></g><g fill="#ffffff" fill-opacity="1"><g transform="translate(28.627301, 20.566361)"><g><path d="M 3.828125 0.09375 C 3.179688 0.09375 2.671875 -0.140625 2.296875 -0.609375 L 2.21875 -0.609375 C 2.269531 -0.148438 2.296875 0.113281 2.296875 0.1875 L 2.296875 2.4375 L 0.796875 2.4375 L 0.796875 -5.53125 L 2.015625 -5.53125 L 2.234375 -4.8125 L 2.296875 -4.8125 C 2.648438 -5.363281 3.175781 -5.640625 3.875 -5.640625 C 4.53125 -5.640625 5.039062 -5.382812 5.40625 -4.875 C 5.78125 -4.375 5.96875 -3.675781 5.96875 -2.78125 C 5.96875 -2.1875 5.878906 -1.671875 5.703125 -1.234375 C 5.523438 -0.796875 5.273438 -0.460938 4.953125 -0.234375 C 4.640625 -0.015625 4.265625 0.09375 3.828125 0.09375 Z M 3.390625 -4.4375 C 3.015625 -4.4375 2.738281 -4.320312 2.5625 -4.09375 C 2.394531 -3.863281 2.304688 -3.484375 2.296875 -2.953125 L 2.296875 -2.78125 C 2.296875 -2.1875 2.382812 -1.757812 2.5625 -1.5 C 2.738281 -1.25 3.019531 -1.125 3.40625 -1.125 C 4.082031 -1.125 4.421875 -1.679688 4.421875 -2.796875 C 4.421875 -3.335938 4.335938 -3.742188 4.171875 -4.015625 C 4.003906 -4.296875 3.742188 -4.4375 3.390625 -4.4375 Z M 3.390625 -4.4375 "/></g></g></g><g fill="#ffffff" fill-opacity="1"><g transform="translate(35.045579, 20.566361)"><g><path d="M 3.828125 0.09375 C 3.179688 0.09375 2.671875 -0.140625 2.296875 -0.609375 L 2.21875 -0.609375 C 2.269531 -0.148438 2.296875 0.113281 2.296875 0.1875 L 2.296875 2.4375 L 0.796875 2.4375 L 0.796875 -5.53125 L 2.015625 -5.53125 L 2.234375 -4.8125 L 2.296875 -4.8125 C 2.648438 -5.363281 3.175781 -5.640625 3.875 -5.640625 C 4.53125 -5.640625 5.039062 -5.382812 5.40625 -4.875 C 5.78125 -4.375 5.96875 -3.675781 5.96875 -2.78125 C 5.96875 -2.1875 5.878906 -1.671875 5.703125 -1.234375 C 5.523438 -0.796875 5.273438 -0.460938 4.953125 -0.234375 C 4.640625 -0.015625 4.265625 0.09375 3.828125 0.09375 Z M 3.390625 -4.4375 C 3.015625 -4.4375 2.738281 -4.320312 2.5625 -4.09375 C 2.394531 -3.863281 2.304688 -3.484375 2.296875 -2.953125 L 2.296875 -2.78125 C 2.296875 -2.1875 2.382812 -1.757812 2.5625 -1.5 C 2.738281 -1.25 3.019531 -1.125 3.40625 -1.125 C 4.082031 -1.125 4.421875 -1.679688 4.421875 -2.796875 C 4.421875 -3.335938 4.335938 -3.742188 4.171875 -4.015625 C 4.003906 -4.296875 3.742188 -4.4375 3.390625 -4.4375 Z M 3.390625 -4.4375 "/></g></g></g><g fill="#ffffff" fill-opacity="1"><g transform="translate(41.463857, 20.566361)"><g/></g></g><g fill="#ffffff" fill-opacity="1"><g transform="translate(44.09852, 20.566361)"><g><path d="M 5.1875 -2.015625 C 5.1875 -1.359375 4.945312 -0.84375 4.46875 -0.46875 C 4 -0.09375 3.347656 0.09375 2.515625 0.09375 C 1.742188 0.09375 1.0625 -0.0507812 0.46875 -0.34375 L 0.46875 -1.765625 C 0.957031 -1.546875 1.367188 -1.390625 1.703125 -1.296875 C 2.046875 -1.210938 2.359375 -1.171875 2.640625 -1.171875 C 2.972656 -1.171875 3.226562 -1.234375 3.40625 -1.359375 C 3.582031 -1.492188 3.671875 -1.6875 3.671875 -1.9375 C 3.671875 -2.082031 3.628906 -2.207031 3.546875 -2.3125 C 3.472656 -2.425781 3.359375 -2.53125 3.203125 -2.625 C 3.054688 -2.726562 2.742188 -2.894531 2.265625 -3.125 C 1.828125 -3.332031 1.5 -3.53125 1.28125 -3.71875 C 1.0625 -3.914062 0.882812 -4.140625 0.75 -4.390625 C 0.613281 -4.640625 0.546875 -4.9375 0.546875 -5.28125 C 0.546875 -5.925781 0.765625 -6.429688 1.203125 -6.796875 C 1.640625 -7.160156 2.238281 -7.34375 3 -7.34375 C 3.375 -7.34375 3.734375 -7.296875 4.078125 -7.203125 C 4.421875 -7.117188 4.78125 -6.992188 5.15625 -6.828125 L 4.65625 -5.640625 C 4.269531 -5.796875 3.945312 -5.90625 3.6875 -5.96875 C 3.4375 -6.03125 3.191406 -6.0625 2.953125 -6.0625 C 2.660156 -6.0625 2.4375 -5.992188 2.28125 -5.859375 C 2.125 -5.722656 2.046875 -5.546875 2.046875 -5.328125 C 2.046875 -5.191406 2.078125 -5.070312 2.140625 -4.96875 C 2.203125 -4.875 2.300781 -4.78125 2.4375 -4.6875 C 2.582031 -4.59375 2.910156 -4.421875 3.421875 -4.171875 C 4.097656 -3.847656 4.5625 -3.523438 4.8125 -3.203125 C 5.0625 -2.878906 5.1875 -2.484375 5.1875 -2.015625 Z M 5.1875 -2.015625 "/></g></g></g><g fill="#ffffff" fill-opacity="1"><g transform="translate(49.684799, 20.566361)"><g><path d="M 3.125 -1.109375 C 3.382812 -1.109375 3.703125 -1.164062 4.078125 -1.28125 L 4.078125 -0.15625 C 3.703125 0.0078125 3.238281 0.09375 2.6875 0.09375 C 2.082031 0.09375 1.640625 -0.0546875 1.359375 -0.359375 C 1.085938 -0.660156 0.953125 -1.117188 0.953125 -1.734375 L 0.953125 -4.40625 L 0.234375 -4.40625 L 0.234375 -5.046875 L 1.0625 -5.546875 L 1.5 -6.71875 L 2.46875 -6.71875 L 2.46875 -5.53125 L 4.015625 -5.53125 L 4.015625 -4.40625 L 2.46875 -4.40625 L 2.46875 -1.734375 C 2.46875 -1.515625 2.523438 -1.351562 2.640625 -1.25 C 2.765625 -1.15625 2.925781 -1.109375 3.125 -1.109375 Z M 3.125 -1.109375 "/></g></g></g><g fill="#ffffff" fill-opacity="1"><g transform="translate(54.087475, 20.566361)"><g><path d="M 2 -2.78125 C 2 -2.226562 2.085938 -1.8125 2.265625 -1.53125 C 2.441406 -1.25 2.734375 -1.109375 3.140625 -1.109375 C 3.546875 -1.109375 3.835938 -1.25 4.015625 -1.53125 C 4.191406 -1.8125 4.28125 -2.226562 4.28125 -2.78125 C 4.28125 -3.320312 4.191406 -3.726562 4.015625 -4 C 3.835938 -4.28125 3.546875 -4.421875 3.140625 -4.421875 C 2.734375 -4.421875 2.441406 -4.285156 2.265625 -4.015625 C 2.085938 -3.742188 2 -3.332031 2 -2.78125 Z M 5.828125 -2.78125 C 5.828125 -1.875 5.585938 -1.164062 5.109375 -0.65625 C 4.628906 -0.15625 3.96875 0.09375 3.125 0.09375 C 2.59375 0.09375 2.125 -0.0195312 1.71875 -0.25 C 1.3125 -0.476562 1 -0.8125 0.78125 -1.25 C 0.5625 -1.6875 0.453125 -2.195312 0.453125 -2.78125 C 0.453125 -3.6875 0.6875 -4.390625 1.15625 -4.890625 C 1.632812 -5.390625 2.300781 -5.640625 3.15625 -5.640625 C 3.6875 -5.640625 4.15625 -5.523438 4.5625 -5.296875 C 4.96875 -5.066406 5.28125 -4.734375 5.5 -4.296875 C 5.71875 -3.867188 5.828125 -3.363281 5.828125 -2.78125 Z M 5.828125 -2.78125 "/></g></g></g><g fill="#ffffff" fill-opacity="1"><g transform="translate(60.367086, 20.566361)"><g><path d="M 3.875 -5.640625 C 4.082031 -5.640625 4.253906 -5.625 4.390625 -5.59375 L 4.28125 -4.171875 C 4.15625 -4.210938 4.003906 -4.234375 3.828125 -4.234375 C 3.347656 -4.234375 2.972656 -4.109375 2.703125 -3.859375 C 2.429688 -3.609375 2.296875 -3.257812 2.296875 -2.8125 L 2.296875 0 L 0.796875 0 L 0.796875 -5.53125 L 1.9375 -5.53125 L 2.15625 -4.609375 L 2.234375 -4.609375 C 2.398438 -4.921875 2.628906 -5.171875 2.921875 -5.359375 C 3.210938 -5.546875 3.53125 -5.640625 3.875 -5.640625 Z M 3.875 -5.640625 "/></g></g></g><g fill="#ffffff" fill-opacity="1"><g transform="translate(64.972795, 20.566361)"><g><path d="M 3.078125 -4.5625 C 2.765625 -4.5625 2.515625 -4.457031 2.328125 -4.25 C 2.148438 -4.050781 2.046875 -3.765625 2.015625 -3.390625 L 4.140625 -3.390625 C 4.128906 -3.765625 4.03125 -4.050781 3.84375 -4.25 C 3.65625 -4.457031 3.398438 -4.5625 3.078125 -4.5625 Z M 3.296875 0.09375 C 2.398438 0.09375 1.703125 -0.148438 1.203125 -0.640625 C 0.703125 -1.128906 0.453125 -1.828125 0.453125 -2.734375 C 0.453125 -3.660156 0.679688 -4.375 1.140625 -4.875 C 1.609375 -5.382812 2.253906 -5.640625 3.078125 -5.640625 C 3.859375 -5.640625 4.46875 -5.414062 4.90625 -4.96875 C 5.34375 -4.519531 5.5625 -3.90625 5.5625 -3.125 L 5.5625 -2.390625 L 1.984375 -2.390625 C 2.003906 -1.960938 2.128906 -1.628906 2.359375 -1.390625 C 2.597656 -1.148438 2.929688 -1.03125 3.359375 -1.03125 C 3.691406 -1.03125 4.007812 -1.0625 4.3125 -1.125 C 4.613281 -1.195312 4.925781 -1.304688 5.25 -1.453125 L 5.25 -0.296875 C 4.976562 -0.160156 4.691406 -0.0625 4.390625 0 C 4.097656 0.0625 3.734375 0.09375 3.296875 0.09375 Z M 3.296875 0.09375 "/></g></g></g><g fill="#ffffff" fill-opacity="1"><g transform="translate(22.44218, 10.748204)"><g><path d="M 3.625 -2.046875 C 3.625 -1.367188 3.445312 -0.859375 3.09375 -0.515625 C 2.738281 -0.171875 2.21875 0 1.53125 0 L 0.5625 0 L 0.5625 -4.03125 L 1.65625 -4.03125 C 2.300781 -4.03125 2.789062 -3.859375 3.125 -3.515625 C 3.457031 -3.179688 3.625 -2.691406 3.625 -2.046875 Z M 3.328125 -2.046875 C 3.328125 -2.617188 3.175781 -3.050781 2.875 -3.34375 C 2.582031 -3.632812 2.15625 -3.78125 1.59375 -3.78125 L 0.84375 -3.78125 L 0.84375 -0.25 L 1.515625 -0.25 C 2.722656 -0.25 3.328125 -0.847656 3.328125 -2.046875 Z M 3.328125 -2.046875 "/></g></g><g transform="translate(26.422934, 10.748204)"><g><path d="M 2.984375 -1.5 C 2.984375 -1.007812 2.863281 -0.625 2.625 -0.34375 C 2.382812 -0.0703125 2.054688 0.0625 1.640625 0.0625 C 1.378906 0.0625 1.144531 0 0.9375 -0.125 C 0.738281 -0.257812 0.585938 -0.441406 0.484375 -0.671875 C 0.378906 -0.910156 0.328125 -1.1875 0.328125 -1.5 C 0.328125 -1.988281 0.441406 -2.367188 0.671875 -2.640625 C 0.910156 -2.910156 1.238281 -3.046875 1.65625 -3.046875 C 2.070312 -3.046875 2.394531 -2.90625 2.625 -2.625 C 2.863281 -2.351562 2.984375 -1.976562 2.984375 -1.5 Z M 0.609375 -1.5 C 0.609375 -1.09375 0.695312 -0.769531 0.875 -0.53125 C 1.0625 -0.300781 1.320312 -0.1875 1.65625 -0.1875 C 1.976562 -0.1875 2.226562 -0.300781 2.40625 -0.53125 C 2.59375 -0.769531 2.6875 -1.09375 2.6875 -1.5 C 2.6875 -1.914062 2.59375 -2.234375 2.40625 -2.453125 C 2.226562 -2.679688 1.972656 -2.796875 1.640625 -2.796875 C 1.316406 -2.796875 1.0625 -2.679688 0.875 -2.453125 C 0.695312 -2.234375 0.609375 -1.914062 0.609375 -1.5 Z M 0.609375 -1.5 "/></g></g><g transform="translate(29.726465, 10.748204)"><g><path d="M 2.890625 0 L 2.234375 -2 C 2.191406 -2.132812 2.140625 -2.332031 2.078125 -2.59375 L 2.0625 -2.59375 L 2 -2.390625 L 1.875 -2 L 1.21875 0 L 0.9375 0 L 0.078125 -3 L 0.375 -3 L 0.859375 -1.265625 C 0.972656 -0.828125 1.046875 -0.507812 1.078125 -0.3125 L 1.09375 -0.3125 C 1.195312 -0.738281 1.273438 -1.023438 1.328125 -1.171875 L 1.953125 -3 L 2.1875 -3 L 2.78125 -1.171875 C 2.914062 -0.742188 3 -0.457031 3.03125 -0.3125 L 3.046875 -0.3125 C 3.054688 -0.4375 3.128906 -0.757812 3.265625 -1.28125 L 3.71875 -3 L 4 -3 L 3.1875 0 Z M 2.890625 0 "/></g></g><g transform="translate(33.803572, 10.748204)"><g><path d="M 2.59375 0 L 2.59375 -1.9375 C 2.59375 -2.238281 2.523438 -2.457031 2.390625 -2.59375 C 2.265625 -2.726562 2.070312 -2.796875 1.8125 -2.796875 C 1.445312 -2.796875 1.179688 -2.707031 1.015625 -2.53125 C 0.859375 -2.351562 0.78125 -2.0625 0.78125 -1.65625 L 0.78125 0 L 0.5 0 L 0.5 -3 L 0.734375 -3 L 0.78125 -2.578125 L 0.796875 -2.578125 C 0.992188 -2.890625 1.34375 -3.046875 1.84375 -3.046875 C 2.519531 -3.046875 2.859375 -2.679688 2.859375 -1.953125 L 2.859375 0 Z M 2.59375 0 "/></g></g><g transform="translate(37.129126, 10.748204)"><g><path d="M 0.78125 0 L 0.5 0 L 0.5 -4.28125 L 0.78125 -4.28125 Z M 0.78125 0 "/></g></g><g transform="translate(38.403739, 10.748204)"><g><path d="M 2.984375 -1.5 C 2.984375 -1.007812 2.863281 -0.625 2.625 -0.34375 C 2.382812 -0.0703125 2.054688 0.0625 1.640625 0.0625 C 1.378906 0.0625 1.144531 0 0.9375 -0.125 C 0.738281 -0.257812 0.585938 -0.441406 0.484375 -0.671875 C 0.378906 -0.910156 0.328125 -1.1875 0.328125 -1.5 C 0.328125 -1.988281 0.441406 -2.367188 0.671875 -2.640625 C 0.910156 -2.910156 1.238281 -3.046875 1.65625 -3.046875 C 2.070312 -3.046875 2.394531 -2.90625 2.625 -2.625 C 2.863281 -2.351562 2.984375 -1.976562 2.984375 -1.5 Z M 0.609375 -1.5 C 0.609375 -1.09375 0.695312 -0.769531 0.875 -0.53125 C 1.0625 -0.300781 1.320312 -0.1875 1.65625 -0.1875 C 1.976562 -0.1875 2.226562 -0.300781 2.40625 -0.53125 C 2.59375 -0.769531 2.6875 -1.09375 2.6875 -1.5 C 2.6875 -1.914062 2.59375 -2.234375 2.40625 -2.453125 C 2.226562 -2.679688 1.972656 -2.796875 1.640625 -2.796875 C 1.316406 -2.796875 1.0625 -2.679688 0.875 -2.453125 C 0.695312 -2.234375 0.609375 -1.914062 0.609375 -1.5 Z M 0.609375 -1.5 "/></g></g><g transform="translate(41.707269, 10.748204)"><g><path d="M 2.3125 0 L 2.25 -0.46875 L 2.234375 -0.46875 C 2.078125 -0.28125 1.921875 -0.144531 1.765625 -0.0625 C 1.609375 0.0195312 1.421875 0.0625 1.203125 0.0625 C 0.910156 0.0625 0.679688 -0.0078125 0.515625 -0.15625 C 0.347656 -0.3125 0.265625 -0.523438 0.265625 -0.796875 C 0.265625 -1.085938 0.382812 -1.3125 0.625 -1.46875 C 0.875 -1.632812 1.226562 -1.722656 1.6875 -1.734375 L 2.265625 -1.75 L 2.265625 -1.953125 C 2.265625 -2.234375 2.207031 -2.445312 2.09375 -2.59375 C 1.976562 -2.738281 1.789062 -2.8125 1.53125 -2.8125 C 1.25 -2.8125 0.960938 -2.734375 0.671875 -2.578125 L 0.5625 -2.8125 C 0.894531 -2.96875 1.222656 -3.046875 1.546875 -3.046875 C 1.867188 -3.046875 2.109375 -2.957031 2.265625 -2.78125 C 2.429688 -2.613281 2.515625 -2.347656 2.515625 -1.984375 L 2.515625 0 Z M 1.21875 -0.1875 C 1.539062 -0.1875 1.789062 -0.273438 1.96875 -0.453125 C 2.15625 -0.640625 2.25 -0.898438 2.25 -1.234375 L 2.25 -1.515625 L 1.734375 -1.5 C 1.304688 -1.476562 1.003906 -1.410156 0.828125 -1.296875 C 0.648438 -1.191406 0.5625 -1.019531 0.5625 -0.78125 C 0.5625 -0.59375 0.617188 -0.445312 0.734375 -0.34375 C 0.847656 -0.238281 1.007812 -0.1875 1.21875 -0.1875 Z M 1.21875 -0.1875 "/></g></g><g transform="translate(44.694212, 10.748204)"><g><path d="M 1.59375 -3.046875 C 1.8125 -3.046875 2 -3.003906 2.15625 -2.921875 C 2.3125 -2.847656 2.453125 -2.71875 2.578125 -2.53125 L 2.59375 -2.53125 C 2.582031 -2.757812 2.578125 -2.984375 2.578125 -3.203125 L 2.578125 -4.28125 L 2.859375 -4.28125 L 2.859375 0 L 2.671875 0 L 2.609375 -0.453125 L 2.578125 -0.453125 C 2.347656 -0.109375 2.023438 0.0625 1.609375 0.0625 C 1.191406 0.0625 0.875 -0.0664062 0.65625 -0.328125 C 0.4375 -0.585938 0.328125 -0.960938 0.328125 -1.453125 C 0.328125 -1.972656 0.4375 -2.367188 0.65625 -2.640625 C 0.875 -2.910156 1.1875 -3.046875 1.59375 -3.046875 Z M 1.59375 -2.796875 C 1.269531 -2.796875 1.023438 -2.679688 0.859375 -2.453125 C 0.691406 -2.222656 0.609375 -1.890625 0.609375 -1.453125 C 0.609375 -0.609375 0.941406 -0.1875 1.609375 -0.1875 C 1.941406 -0.1875 2.1875 -0.285156 2.34375 -0.484375 C 2.5 -0.679688 2.578125 -1.003906 2.578125 -1.453125 L 2.578125 -1.5 C 2.578125 -1.957031 2.5 -2.285156 2.34375 -2.484375 C 2.195312 -2.691406 1.945312 -2.796875 1.59375 -2.796875 Z M 1.59375 -2.796875 "/></g></g><g transform="translate(48.050048, 10.748204)"><g/></g><g transform="translate(49.514613, 10.748204)"><g><path d="M 2.984375 -1.5 C 2.984375 -1.007812 2.863281 -0.625 2.625 -0.34375 C 2.382812 -0.0703125 2.054688 0.0625 1.640625 0.0625 C 1.378906 0.0625 1.144531 0 0.9375 -0.125 C 0.738281 -0.257812 0.585938 -0.441406 0.484375 -0.671875 C 0.378906 -0.910156 0.328125 -1.1875 0.328125 -1.5 C 0.328125 -1.988281 0.441406 -2.367188 0.671875 -2.640625 C 0.910156 -2.910156 1.238281 -3.046875 1.65625 -3.046875 C 2.070312 -3.046875 2.394531 -2.90625 2.625 -2.625 C 2.863281 -2.351562 2.984375 -1.976562 2.984375 -1.5 Z M 0.609375 -1.5 C 0.609375 -1.09375 0.695312 -0.769531 0.875 -0.53125 C 1.0625 -0.300781 1.320312 -0.1875 1.65625 -0.1875 C 1.976562 -0.1875 2.226562 -0.300781 2.40625 -0.53125 C 2.59375 -0.769531 2.6875 -1.09375 2.6875 -1.5 C 2.6875 -1.914062 2.59375 -2.234375 2.40625 -2.453125 C 2.226562 -2.679688 1.972656 -2.796875 1.640625 -2.796875 C 1.316406 -2.796875 1.0625 -2.679688 0.875 -2.453125 C 0.695312 -2.234375 0.609375 -1.914062 0.609375 -1.5 Z M 0.609375 -1.5 "/></g></g><g transform="translate(52.818144, 10.748204)"><g><path d="M 2.59375 0 L 2.59375 -1.9375 C 2.59375 -2.238281 2.523438 -2.457031 2.390625 -2.59375 C 2.265625 -2.726562 2.070312 -2.796875 1.8125 -2.796875 C 1.445312 -2.796875 1.179688 -2.707031 1.015625 -2.53125 C 0.859375 -2.351562 0.78125 -2.0625 0.78125 -1.65625 L 0.78125 0 L 0.5 0 L 0.5 -3 L 0.734375 -3 L 0.78125 -2.578125 L 0.796875 -2.578125 C 0.992188 -2.890625 1.34375 -3.046875 1.84375 -3.046875 C 2.519531 -3.046875 2.859375 -2.679688 2.859375 -1.953125 L 2.859375 0 Z M 2.59375 0 "/></g></g><g transform="translate(56.143698, 10.748204)"><g/></g><g transform="translate(57.608263, 10.748204)"><g><path d="M 1.296875 -0.1875 C 1.460938 -0.1875 1.613281 -0.203125 1.75 -0.234375 L 1.75 -0.015625 C 1.613281 0.0351562 1.457031 0.0625 1.28125 0.0625 C 1.019531 0.0625 0.828125 -0.0078125 0.703125 -0.15625 C 0.578125 -0.300781 0.515625 -0.523438 0.515625 -0.828125 L 0.515625 -2.75 L 0.0625 -2.75 L 0.0625 -2.921875 L 0.515625 -3.046875 L 0.65625 -3.71875 L 0.796875 -3.71875 L 0.796875 -3 L 1.671875 -3 L 1.671875 -2.75 L 0.796875 -2.75 L 0.796875 -0.859375 C 0.796875 -0.628906 0.832031 -0.457031 0.90625 -0.34375 C 0.988281 -0.238281 1.117188 -0.1875 1.296875 -0.1875 Z M 1.296875 -0.1875 "/></g></g><g transform="translate(59.496782, 10.748204)"><g><path d="M 2.59375 0 L 2.59375 -1.9375 C 2.59375 -2.238281 2.523438 -2.457031 2.390625 -2.59375 C 2.265625 -2.726562 2.070312 -2.796875 1.8125 -2.796875 C 1.445312 -2.796875 1.179688 -2.707031 1.015625 -2.53125 C 0.859375 -2.351562 0.78125 -2.0625 0.78125 -1.65625 L 0.78125 0 L 0.5 0 L 0.5 -4.28125 L 0.78125 -4.28125 L 0.78125 -2.921875 L 0.765625 -2.546875 L 0.78125 -2.546875 C 0.894531 -2.722656 1.035156 -2.847656 1.203125 -2.921875 C 1.367188 -3.003906 1.582031 -3.046875 1.84375 -3.046875 C 2.519531 -3.046875 2.859375 -2.679688 2.859375 -1.953125 L 2.859375 0 Z M 2.59375 0 "/></g></g><g transform="translate(62.822336, 10.748204)"><g><path d="M 1.703125 0.0625 C 1.273438 0.0625 0.9375 -0.0703125 0.6875 -0.34375 C 0.445312 -0.613281 0.328125 -0.988281 0.328125 -1.46875 C 0.328125 -1.945312 0.441406 -2.328125 0.671875 -2.609375 C 0.910156 -2.898438 1.226562 -3.046875 1.625 -3.046875 C 1.976562 -3.046875 2.253906 -2.921875 2.453125 -2.671875 C 2.660156 -2.429688 2.765625 -2.101562 2.765625 -1.6875 L 2.765625 -1.453125 L 0.609375 -1.453125 C 0.617188 -1.046875 0.71875 -0.734375 0.90625 -0.515625 C 1.09375 -0.296875 1.359375 -0.1875 1.703125 -0.1875 C 1.878906 -0.1875 2.03125 -0.195312 2.15625 -0.21875 C 2.289062 -0.25 2.457031 -0.304688 2.65625 -0.390625 L 2.65625 -0.140625 C 2.488281 -0.0664062 2.332031 -0.015625 2.1875 0.015625 C 2.039062 0.046875 1.878906 0.0625 1.703125 0.0625 Z M 1.625 -2.8125 C 1.34375 -2.8125 1.113281 -2.710938 0.9375 -2.515625 C 0.757812 -2.328125 0.65625 -2.054688 0.625 -1.703125 L 2.484375 -1.703125 C 2.484375 -2.046875 2.40625 -2.316406 2.25 -2.515625 C 2.101562 -2.710938 1.894531 -2.8125 1.625 -2.8125 Z M 1.625 -2.8125 "/></g></g></g><g clip-path="url(#25de121747)"><path stroke-linecap="butt" transform="matrix(0.725806, 0, 0, 0.725806, 1.209676, 27.94355)" fill="none" stroke-linejoin="miter" d="M 0.00173778 0.998088 L 99.998266 0.998088 " stroke="#ffffff" stroke-width="2" stroke-opacity="1" stroke-miterlimit="4"/></g><g clip-path="url(#0c69c8ccdf)"><path stroke-linecap="butt" transform="matrix(0.726706, 0.0036378, -0.00363326, 0.725797, 1.213309, -0.725782)" fill="none" stroke-linejoin="miter" d="M 0.00173552 0.99997 L 99.879886 0.999893 " stroke="#ffffff" stroke-width="2" stroke-opacity="1" stroke-miterlimit="4"/></g><g clip-path="url(#a7408c84f6)"><path stroke-linecap="round" transform="matrix(0.000000000000000044, 0.726715, -0.725806, 0.000000000000000044, 74.066127, -24.450606)" fill="none" stroke-linejoin="miter" d="M 1.0017 1.000657 L 98.884397 1.000657 " stroke="#ffffff" stroke-width="2" stroke-opacity="1" stroke-miterlimit="4"/></g><g clip-path="url(#e323fa184f)"><path stroke-linecap="butt" transform="matrix(0.000000000000000044, 0.726715, -0.725806, 0.000000000000000044, 2.295659, -24.450606)" fill="none" stroke-linejoin="miter" d="M 0.00190935 0.999366 L 99.884188 0.999366 " stroke="#ffffff" stroke-width="2" stroke-opacity="1" stroke-miterlimit="4"/></g></svg>