<svg xmlns="http://www.w3.org/2000/svg" xmlns:xlink="http://www.w3.org/1999/xlink" width="100" zoomAndPan="magnify" viewBox="0 0 75 30.000001" height="40" preserveAspectRatio="xMidYMid meet" version="1.0"><defs><g/><clipPath id="cdf7437711"><path d="M 4.113281 7.339844 L 17.902344 7.339844 L 17.902344 22.582031 L 4.113281 22.582031 Z M 4.113281 7.339844 " clip-rule="nonzero"/></clipPath><clipPath id="2ca4ee9aa1"><path d="M 1.210938 27 L 73.789062 27 L 73.789062 29.03125 L 1.210938 29.03125 Z M 1.210938 27 " clip-rule="nonzero"/></clipPath><clipPath id="59567810aa"><path d="M 1.210938 0 L 73.789062 0 L 73.789062 13 L 1.210938 13 Z M 1.210938 0 " clip-rule="nonzero"/></clipPath><clipPath id="aa76248775"><path d="M 72 0 L 73.789062 0 L 73.789062 29.03125 L 72 29.03125 Z M 72 0 " clip-rule="nonzero"/></clipPath><clipPath id="5f4640126e"><path d="M 1.210938 0 L 3 0 L 3 29.03125 L 1.210938 29.03125 Z M 1.210938 0 " clip-rule="nonzero"/></clipPath></defs><g clip-path="url(#cdf7437711)"><path fill="#ffffff" d="M 6.929688 7.585938 L 14.886719 12.203125 L 12.59375 14.5 L 5.523438 7.421875 C 5.6875 7.375 5.855469 7.347656 6.027344 7.34375 C 6.347656 7.347656 6.648438 7.425781 6.929688 7.585938 Z M 4.226562 20.707031 L 4.226562 9.15625 C 4.234375 8.585938 4.457031 8.125 4.898438 7.769531 L 12.105469 14.988281 L 4.957031 22.144531 C 4.476562 21.785156 4.230469 21.308594 4.226562 20.707031 Z M 6.929688 22.273438 C 6.515625 22.507812 6.078125 22.566406 5.613281 22.460938 L 12.59375 15.476562 L 14.816406 17.703125 Z M 16.890625 16.5 L 15.429688 17.34375 L 13.078125 14.988281 L 15.503906 12.558594 L 16.890625 13.363281 C 17.027344 13.441406 17.148438 13.539062 17.261719 13.652344 C 17.375 13.761719 17.46875 13.886719 17.546875 14.027344 C 17.628906 14.164062 17.6875 14.308594 17.726562 14.460938 C 17.769531 14.617188 17.789062 14.773438 17.789062 14.929688 C 17.789062 15.089844 17.769531 15.246094 17.726562 15.398438 C 17.6875 15.550781 17.628906 15.699219 17.546875 15.835938 C 17.46875 15.972656 17.375 16.097656 17.261719 16.210938 C 17.148438 16.324219 17.027344 16.417969 16.890625 16.5 Z M 16.890625 16.5 " fill-opacity="1" fill-rule="nonzero"/></g><g clip-path="url(#2ca4ee9aa1)"><path stroke-linecap="butt" transform="matrix(0.725806, 0, 0, 0.725806, 1.209676, 27.580647)" fill="none" stroke-linejoin="miter" d="M 0.00173778 1.498088 L 99.998266 1.498088 " stroke="#ffffff" stroke-width="3" stroke-opacity="1" stroke-miterlimit="4"/></g><g clip-path="url(#59567810aa)"><path stroke-linecap="butt" transform="matrix(0.726706, 0.0036378, -0.00363326, 0.725797, 1.215126, -1.08868)" fill="none" stroke-linejoin="miter" d="M 0.00173552 1.49997 L 99.879886 1.499893 " stroke="#ffffff" stroke-width="3" stroke-opacity="1" stroke-miterlimit="4"/></g><g clip-path="url(#aa76248775)"><path stroke-linecap="round" transform="matrix(0.000000000000000044, 0.726715, -0.725806, 0.000000000000000044, 74.42903, -24.450606)" fill="none" stroke-linejoin="miter" d="M 1.501595 1.500657 L 98.384502 1.500657 " stroke="#ffffff" stroke-width="3" stroke-opacity="1" stroke-miterlimit="4"/></g><g clip-path="url(#5f4640126e)"><path stroke-linecap="butt" transform="matrix(0.000000000000000044, 0.726715, -0.725806, 0.000000000000000044, 2.658562, -24.450606)" fill="none" stroke-linejoin="miter" d="M 0.00190935 1.499366 L 99.884188 1.499366 " stroke="#ffffff" stroke-width="3" stroke-opacity="1" stroke-miterlimit="4"/></g><g fill="#ffffff" fill-opacity="1"><g transform="translate(21.451121, 19.458978)"><g><path d="M 2.96875 -3.296875 L 5.296875 -3.296875 L 5.296875 -0.25 C 4.921875 -0.125 4.566406 -0.0390625 4.234375 0 C 3.898438 0.0507812 3.554688 0.078125 3.203125 0.078125 C 2.316406 0.078125 1.640625 -0.179688 1.171875 -0.703125 C 0.710938 -1.222656 0.484375 -1.96875 0.484375 -2.9375 C 0.484375 -3.882812 0.753906 -4.625 1.296875 -5.15625 C 1.835938 -5.6875 2.585938 -5.953125 3.546875 -5.953125 C 4.148438 -5.953125 4.726562 -5.832031 5.28125 -5.59375 L 4.875 -4.59375 C 4.445312 -4.8125 4 -4.921875 3.53125 -4.921875 C 3 -4.921875 2.566406 -4.738281 2.234375 -4.375 C 1.910156 -4.007812 1.75 -3.523438 1.75 -2.921875 C 1.75 -2.285156 1.878906 -1.796875 2.140625 -1.453125 C 2.410156 -1.117188 2.789062 -0.953125 3.28125 -0.953125 C 3.539062 -0.953125 3.804688 -0.976562 4.078125 -1.03125 L 4.078125 -2.265625 L 2.96875 -2.265625 Z M 2.96875 -3.296875 "/></g></g><g transform="translate(27.401171, 19.458978)"><g><path d="M 1.625 -2.25 C 1.625 -1.800781 1.695312 -1.460938 1.84375 -1.234375 C 1.988281 -1.015625 2.222656 -0.90625 2.546875 -0.90625 C 2.867188 -0.90625 3.101562 -1.015625 3.25 -1.234375 C 3.394531 -1.460938 3.46875 -1.800781 3.46875 -2.25 C 3.46875 -2.695312 3.394531 -3.03125 3.25 -3.25 C 3.101562 -3.46875 2.867188 -3.578125 2.546875 -3.578125 C 2.210938 -3.578125 1.972656 -3.46875 1.828125 -3.25 C 1.691406 -3.03125 1.625 -2.695312 1.625 -2.25 Z M 4.71875 -2.25 C 4.71875 -1.519531 4.523438 -0.945312 4.140625 -0.53125 C 3.753906 -0.125 3.21875 0.078125 2.53125 0.078125 C 2.101562 0.078125 1.722656 -0.015625 1.390625 -0.203125 C 1.066406 -0.390625 0.816406 -0.660156 0.640625 -1.015625 C 0.460938 -1.367188 0.375 -1.78125 0.375 -2.25 C 0.375 -2.976562 0.5625 -3.546875 0.9375 -3.953125 C 1.320312 -4.367188 1.863281 -4.578125 2.5625 -4.578125 C 2.988281 -4.578125 3.363281 -4.484375 3.6875 -4.296875 C 4.019531 -4.109375 4.273438 -3.835938 4.453125 -3.484375 C 4.628906 -3.128906 4.71875 -2.71875 4.71875 -2.25 Z M 4.71875 -2.25 "/></g></g><g transform="translate(32.488605, 19.458978)"><g><path d="M 1.625 -2.25 C 1.625 -1.800781 1.695312 -1.460938 1.84375 -1.234375 C 1.988281 -1.015625 2.222656 -0.90625 2.546875 -0.90625 C 2.867188 -0.90625 3.101562 -1.015625 3.25 -1.234375 C 3.394531 -1.460938 3.46875 -1.800781 3.46875 -2.25 C 3.46875 -2.695312 3.394531 -3.03125 3.25 -3.25 C 3.101562 -3.46875 2.867188 -3.578125 2.546875 -3.578125 C 2.210938 -3.578125 1.972656 -3.46875 1.828125 -3.25 C 1.691406 -3.03125 1.625 -2.695312 1.625 -2.25 Z M 4.71875 -2.25 C 4.71875 -1.519531 4.523438 -0.945312 4.140625 -0.53125 C 3.753906 -0.125 3.21875 0.078125 2.53125 0.078125 C 2.101562 0.078125 1.722656 -0.015625 1.390625 -0.203125 C 1.066406 -0.390625 0.816406 -0.660156 0.640625 -1.015625 C 0.460938 -1.367188 0.375 -1.78125 0.375 -2.25 C 0.375 -2.976562 0.5625 -3.546875 0.9375 -3.953125 C 1.320312 -4.367188 1.863281 -4.578125 2.5625 -4.578125 C 2.988281 -4.578125 3.363281 -4.484375 3.6875 -4.296875 C 4.019531 -4.109375 4.273438 -3.835938 4.453125 -3.484375 C 4.628906 -3.128906 4.71875 -2.71875 4.71875 -2.25 Z M 4.71875 -2.25 "/></g></g><g transform="translate(37.576038, 19.458978)"><g><path d="M 4.546875 -4.484375 L 4.546875 -3.859375 L 3.84375 -3.6875 C 3.96875 -3.488281 4.03125 -3.265625 4.03125 -3.015625 C 4.03125 -2.523438 3.863281 -2.144531 3.53125 -1.875 C 3.195312 -1.613281 2.734375 -1.484375 2.140625 -1.484375 L 1.921875 -1.5 L 1.734375 -1.515625 C 1.609375 -1.421875 1.546875 -1.3125 1.546875 -1.1875 C 1.546875 -1.007812 1.769531 -0.921875 2.21875 -0.921875 L 2.984375 -0.921875 C 3.472656 -0.921875 3.847656 -0.816406 4.109375 -0.609375 C 4.367188 -0.398438 4.5 -0.0859375 4.5 0.328125 C 4.5 0.847656 4.28125 1.25 3.84375 1.53125 C 3.40625 1.820312 2.773438 1.96875 1.953125 1.96875 C 1.328125 1.96875 0.847656 1.859375 0.515625 1.640625 C 0.191406 1.421875 0.03125 1.117188 0.03125 0.734375 C 0.03125 0.460938 0.113281 0.234375 0.28125 0.046875 C 0.445312 -0.128906 0.691406 -0.257812 1.015625 -0.34375 C 0.890625 -0.394531 0.78125 -0.476562 0.6875 -0.59375 C 0.59375 -0.71875 0.546875 -0.847656 0.546875 -0.984375 C 0.546875 -1.160156 0.59375 -1.300781 0.6875 -1.40625 C 0.789062 -1.519531 0.9375 -1.632812 1.125 -1.75 C 0.894531 -1.851562 0.707031 -2.015625 0.5625 -2.234375 C 0.425781 -2.460938 0.359375 -2.726562 0.359375 -3.03125 C 0.359375 -3.519531 0.515625 -3.898438 0.828125 -4.171875 C 1.148438 -4.441406 1.609375 -4.578125 2.203125 -4.578125 C 2.328125 -4.578125 2.472656 -4.5625 2.640625 -4.53125 C 2.816406 -4.507812 2.929688 -4.492188 2.984375 -4.484375 Z M 1.078125 0.640625 C 1.078125 0.804688 1.15625 0.9375 1.3125 1.03125 C 1.476562 1.125 1.707031 1.171875 2 1.171875 C 2.445312 1.171875 2.789062 1.109375 3.03125 0.984375 C 3.28125 0.867188 3.40625 0.707031 3.40625 0.5 C 3.40625 0.332031 3.332031 0.21875 3.1875 0.15625 C 3.039062 0.09375 2.816406 0.0625 2.515625 0.0625 L 1.875 0.0625 C 1.644531 0.0625 1.453125 0.113281 1.296875 0.21875 C 1.148438 0.320312 1.078125 0.460938 1.078125 0.640625 Z M 1.53125 -3.015625 C 1.53125 -2.773438 1.582031 -2.582031 1.6875 -2.4375 C 1.800781 -2.300781 1.972656 -2.234375 2.203125 -2.234375 C 2.429688 -2.234375 2.597656 -2.300781 2.703125 -2.4375 C 2.816406 -2.582031 2.875 -2.773438 2.875 -3.015625 C 2.875 -3.554688 2.648438 -3.828125 2.203125 -3.828125 C 1.753906 -3.828125 1.53125 -3.554688 1.53125 -3.015625 Z M 1.53125 -3.015625 "/></g></g><g transform="translate(42.218121, 19.458978)"><g><path d="M 1.859375 0 L 0.640625 0 L 0.640625 -6.25 L 1.859375 -6.25 Z M 1.859375 0 "/></g></g><g transform="translate(44.725728, 19.458978)"><g><path d="M 2.5 -3.703125 C 2.238281 -3.703125 2.035156 -3.617188 1.890625 -3.453125 C 1.742188 -3.285156 1.660156 -3.050781 1.640625 -2.75 L 3.359375 -2.75 C 3.347656 -3.050781 3.265625 -3.285156 3.109375 -3.453125 C 2.960938 -3.617188 2.757812 -3.703125 2.5 -3.703125 Z M 2.671875 0.078125 C 1.953125 0.078125 1.390625 -0.117188 0.984375 -0.515625 C 0.578125 -0.910156 0.375 -1.476562 0.375 -2.21875 C 0.375 -2.96875 0.5625 -3.546875 0.9375 -3.953125 C 1.3125 -4.367188 1.828125 -4.578125 2.484375 -4.578125 C 3.117188 -4.578125 3.613281 -4.394531 3.96875 -4.03125 C 4.320312 -3.664062 4.5 -3.164062 4.5 -2.53125 L 4.5 -1.9375 L 1.609375 -1.9375 C 1.617188 -1.59375 1.71875 -1.320312 1.90625 -1.125 C 2.101562 -0.925781 2.378906 -0.828125 2.734375 -0.828125 C 3.003906 -0.828125 3.257812 -0.851562 3.5 -0.90625 C 3.738281 -0.96875 3.988281 -1.0625 4.25 -1.1875 L 4.25 -0.234375 C 4.03125 -0.128906 3.800781 -0.0507812 3.5625 0 C 3.320312 0.0507812 3.023438 0.078125 2.671875 0.078125 Z M 2.671875 0.078125 "/></g></g><g transform="translate(49.580455, 19.458978)"><g/></g><g transform="translate(51.714931, 19.458978)"><g><path d="M 1.984375 -3.109375 L 2.390625 -3.109375 C 2.773438 -3.109375 3.0625 -3.179688 3.25 -3.328125 C 3.4375 -3.484375 3.53125 -3.707031 3.53125 -4 C 3.53125 -4.289062 3.453125 -4.503906 3.296875 -4.640625 C 3.140625 -4.773438 2.890625 -4.84375 2.546875 -4.84375 L 1.984375 -4.84375 Z M 4.796875 -4.03125 C 4.796875 -3.40625 4.597656 -2.925781 4.203125 -2.59375 C 3.804688 -2.257812 3.242188 -2.09375 2.515625 -2.09375 L 1.984375 -2.09375 L 1.984375 0 L 0.734375 0 L 0.734375 -5.859375 L 2.609375 -5.859375 C 3.328125 -5.859375 3.867188 -5.707031 4.234375 -5.40625 C 4.609375 -5.101562 4.796875 -4.644531 4.796875 -4.03125 Z M 4.796875 -4.03125 "/></g></g><g transform="translate(56.874583, 19.458978)"><g><path d="M 1.859375 0 L 0.640625 0 L 0.640625 -6.25 L 1.859375 -6.25 Z M 1.859375 0 "/></g></g><g transform="translate(59.382191, 19.458978)"><g><path d="M 3.484375 0 L 3.25 -0.609375 L 3.21875 -0.609375 C 3.007812 -0.347656 2.796875 -0.164062 2.578125 -0.0625 C 2.367188 0.03125 2.085938 0.078125 1.734375 0.078125 C 1.304688 0.078125 0.96875 -0.0390625 0.71875 -0.28125 C 0.46875 -0.53125 0.34375 -0.882812 0.34375 -1.34375 C 0.34375 -1.820312 0.507812 -2.171875 0.84375 -2.390625 C 1.175781 -2.617188 1.679688 -2.742188 2.359375 -2.765625 L 3.125 -2.796875 L 3.125 -2.984375 C 3.125 -3.441406 2.894531 -3.671875 2.4375 -3.671875 C 2.070312 -3.671875 1.648438 -3.5625 1.171875 -3.34375 L 0.765625 -4.171875 C 1.273438 -4.441406 1.847656 -4.578125 2.484375 -4.578125 C 3.085938 -4.578125 3.546875 -4.445312 3.859375 -4.1875 C 4.179688 -3.925781 4.34375 -3.523438 4.34375 -2.984375 L 4.34375 0 Z M 3.125 -2.078125 L 2.65625 -2.0625 C 2.300781 -2.050781 2.035156 -1.984375 1.859375 -1.859375 C 1.679688 -1.742188 1.59375 -1.566406 1.59375 -1.328125 C 1.59375 -0.984375 1.789062 -0.8125 2.1875 -0.8125 C 2.476562 -0.8125 2.707031 -0.890625 2.875 -1.046875 C 3.039062 -1.210938 3.125 -1.429688 3.125 -1.703125 Z M 3.125 -2.078125 "/></g></g><g transform="translate(64.345247, 19.458978)"><g><path d="M 0 -4.484375 L 1.34375 -4.484375 L 2.1875 -1.96875 C 2.257812 -1.75 2.304688 -1.488281 2.328125 -1.1875 L 2.359375 -1.1875 C 2.390625 -1.457031 2.445312 -1.71875 2.53125 -1.96875 L 3.359375 -4.484375 L 4.671875 -4.484375 L 2.78125 0.578125 C 2.601562 1.046875 2.351562 1.394531 2.03125 1.625 C 1.707031 1.851562 1.332031 1.96875 0.90625 1.96875 C 0.6875 1.96875 0.476562 1.945312 0.28125 1.90625 L 0.28125 0.9375 C 0.425781 0.96875 0.585938 0.984375 0.765625 0.984375 C 0.984375 0.984375 1.171875 0.914062 1.328125 0.78125 C 1.492188 0.65625 1.617188 0.457031 1.703125 0.1875 L 1.78125 -0.03125 Z M 0 -4.484375 "/></g></g></g><g fill="#ffffff" fill-opacity="1"><g transform="translate(21.451121, 10.748204)"><g><path d="M 2.15625 -2.03125 L 3.640625 -2.03125 L 3.640625 -0.1875 C 3.242188 -0.0195312 2.804688 0.0625 2.328125 0.0625 C 1.691406 0.0625 1.203125 -0.113281 0.859375 -0.46875 C 0.523438 -0.832031 0.359375 -1.347656 0.359375 -2.015625 C 0.359375 -2.421875 0.441406 -2.78125 0.609375 -3.09375 C 0.773438 -3.414062 1.015625 -3.660156 1.328125 -3.828125 C 1.640625 -4.003906 2 -4.09375 2.40625 -4.09375 C 2.84375 -4.09375 3.238281 -4.007812 3.59375 -3.84375 L 3.46875 -3.59375 C 3.125 -3.757812 2.765625 -3.84375 2.390625 -3.84375 C 1.859375 -3.84375 1.4375 -3.675781 1.125 -3.34375 C 0.8125 -3.019531 0.65625 -2.578125 0.65625 -2.015625 C 0.65625 -1.410156 0.800781 -0.953125 1.09375 -0.640625 C 1.394531 -0.335938 1.832031 -0.1875 2.40625 -0.1875 C 2.78125 -0.1875 3.097656 -0.238281 3.359375 -0.34375 L 3.359375 -1.765625 L 2.15625 -1.765625 Z M 2.15625 -2.03125 "/></g></g><g transform="translate(25.528228, 10.748204)"><g><path d="M 1.703125 0.0625 C 1.273438 0.0625 0.9375 -0.0703125 0.6875 -0.34375 C 0.445312 -0.613281 0.328125 -0.988281 0.328125 -1.46875 C 0.328125 -1.945312 0.441406 -2.328125 0.671875 -2.609375 C 0.910156 -2.898438 1.226562 -3.046875 1.625 -3.046875 C 1.976562 -3.046875 2.253906 -2.921875 2.453125 -2.671875 C 2.660156 -2.429688 2.765625 -2.101562 2.765625 -1.6875 L 2.765625 -1.453125 L 0.609375 -1.453125 C 0.617188 -1.046875 0.71875 -0.734375 0.90625 -0.515625 C 1.09375 -0.296875 1.359375 -0.1875 1.703125 -0.1875 C 1.878906 -0.1875 2.03125 -0.195312 2.15625 -0.21875 C 2.289062 -0.25 2.457031 -0.304688 2.65625 -0.390625 L 2.65625 -0.140625 C 2.488281 -0.0664062 2.332031 -0.015625 2.1875 0.015625 C 2.039062 0.046875 1.878906 0.0625 1.703125 0.0625 Z M 1.625 -2.8125 C 1.34375 -2.8125 1.113281 -2.710938 0.9375 -2.515625 C 0.757812 -2.328125 0.65625 -2.054688 0.625 -1.703125 L 2.484375 -1.703125 C 2.484375 -2.046875 2.40625 -2.316406 2.25 -2.515625 C 2.101562 -2.710938 1.894531 -2.8125 1.625 -2.8125 Z M 1.625 -2.8125 "/></g></g><g transform="translate(28.622535, 10.748204)"><g><path d="M 1.296875 -0.1875 C 1.460938 -0.1875 1.613281 -0.203125 1.75 -0.234375 L 1.75 -0.015625 C 1.613281 0.0351562 1.457031 0.0625 1.28125 0.0625 C 1.019531 0.0625 0.828125 -0.0078125 0.703125 -0.15625 C 0.578125 -0.300781 0.515625 -0.523438 0.515625 -0.828125 L 0.515625 -2.75 L 0.0625 -2.75 L 0.0625 -2.921875 L 0.515625 -3.046875 L 0.65625 -3.71875 L 0.796875 -3.71875 L 0.796875 -3 L 1.671875 -3 L 1.671875 -2.75 L 0.796875 -2.75 L 0.796875 -0.859375 C 0.796875 -0.628906 0.832031 -0.457031 0.90625 -0.34375 C 0.988281 -0.238281 1.117188 -0.1875 1.296875 -0.1875 Z M 1.296875 -0.1875 "/></g></g><g transform="translate(30.511053, 10.748204)"><g/></g><g transform="translate(31.975619, 10.748204)"><g><path d="M 0.78125 0 L 0.5 0 L 0.5 -3 L 0.78125 -3 Z M 0.46875 -3.828125 C 0.46875 -4.003906 0.523438 -4.09375 0.640625 -4.09375 C 0.691406 -4.09375 0.734375 -4.066406 0.765625 -4.015625 C 0.796875 -3.972656 0.8125 -3.910156 0.8125 -3.828125 C 0.8125 -3.742188 0.796875 -3.675781 0.765625 -3.625 C 0.734375 -3.582031 0.691406 -3.5625 0.640625 -3.5625 C 0.523438 -3.5625 0.46875 -3.648438 0.46875 -3.828125 Z M 0.46875 -3.828125 "/></g></g><g transform="translate(33.250231, 10.748204)"><g><path d="M 2.59375 0 L 2.59375 -1.9375 C 2.59375 -2.238281 2.523438 -2.457031 2.390625 -2.59375 C 2.265625 -2.726562 2.070312 -2.796875 1.8125 -2.796875 C 1.445312 -2.796875 1.179688 -2.707031 1.015625 -2.53125 C 0.859375 -2.351562 0.78125 -2.0625 0.78125 -1.65625 L 0.78125 0 L 0.5 0 L 0.5 -3 L 0.734375 -3 L 0.78125 -2.578125 L 0.796875 -2.578125 C 0.992188 -2.890625 1.34375 -3.046875 1.84375 -3.046875 C 2.519531 -3.046875 2.859375 -2.679688 2.859375 -1.953125 L 2.859375 0 Z M 2.59375 0 "/></g></g><g transform="translate(36.575785, 10.748204)"><g/></g><g transform="translate(38.04035, 10.748204)"><g><path d="M 2.984375 -1.5 C 2.984375 -1.007812 2.863281 -0.625 2.625 -0.34375 C 2.382812 -0.0703125 2.054688 0.0625 1.640625 0.0625 C 1.378906 0.0625 1.144531 0 0.9375 -0.125 C 0.738281 -0.257812 0.585938 -0.441406 0.484375 -0.671875 C 0.378906 -0.910156 0.328125 -1.1875 0.328125 -1.5 C 0.328125 -1.988281 0.441406 -2.367188 0.671875 -2.640625 C 0.910156 -2.910156 1.238281 -3.046875 1.65625 -3.046875 C 2.070312 -3.046875 2.394531 -2.90625 2.625 -2.625 C 2.863281 -2.351562 2.984375 -1.976562 2.984375 -1.5 Z M 0.609375 -1.5 C 0.609375 -1.09375 0.695312 -0.769531 0.875 -0.53125 C 1.0625 -0.300781 1.320312 -0.1875 1.65625 -0.1875 C 1.976562 -0.1875 2.226562 -0.300781 2.40625 -0.53125 C 2.59375 -0.769531 2.6875 -1.09375 2.6875 -1.5 C 2.6875 -1.914062 2.59375 -2.234375 2.40625 -2.453125 C 2.226562 -2.679688 1.972656 -2.796875 1.640625 -2.796875 C 1.316406 -2.796875 1.0625 -2.679688 0.875 -2.453125 C 0.695312 -2.234375 0.609375 -1.914062 0.609375 -1.5 Z M 0.609375 -1.5 "/></g></g><g transform="translate(41.343881, 10.748204)"><g><path d="M 2.59375 0 L 2.59375 -1.9375 C 2.59375 -2.238281 2.523438 -2.457031 2.390625 -2.59375 C 2.265625 -2.726562 2.070312 -2.796875 1.8125 -2.796875 C 1.445312 -2.796875 1.179688 -2.707031 1.015625 -2.53125 C 0.859375 -2.351562 0.78125 -2.0625 0.78125 -1.65625 L 0.78125 0 L 0.5 0 L 0.5 -3 L 0.734375 -3 L 0.78125 -2.578125 L 0.796875 -2.578125 C 0.992188 -2.890625 1.34375 -3.046875 1.84375 -3.046875 C 2.519531 -3.046875 2.859375 -2.679688 2.859375 -1.953125 L 2.859375 0 Z M 2.59375 0 "/></g></g></g></svg>